<?xml version="1.0" encoding="utf-8"?>
<!-- Generator: Adobe Illustrator 26.4.1, SVG Export Plug-In . SVG Version: 6.00 Build 0)  -->
<svg version="1.1" id="Layer_1" xmlns="http://www.w3.org/2000/svg" xmlns:xlink="http://www.w3.org/1999/xlink" x="0px" y="0px"
	 viewBox="0 0 1260.4 425.9" style="enable-background:new 0 0 1260.4 425.9;" xml:space="preserve">
<style type="text/css">
	.st0{fill:#FFFFFF;}
</style>
<path class="st0" d="M594.5,398.9c-0.1-0.8-0.2-1.6-0.2-2.4c0-6.5,0-13,0-19.5v-3.9H568v26.1c7.5,0,14.7,0,21.9,0
	C591.4,399.1,593,398.9,594.5,398.9c-0.1,0.6-0.2,1.2-0.2,1.9c0,7.9,0,15.8,0,23.8c0,0.5,0.1,0.9,0.2,1.4h26.5c0-7.2,0-14.3,0-21.4
	c0-1.9-0.2-3.8-0.3-5.7c0.9,0.1,1.8,0.3,2.7,0.3c6.6,0,13.2,0,19.7,0h4.2V0h-26.3v3.6c0,130.6,0,261.3,0,391.9
	c0,1.1-0.2,2.3-0.2,3.5c-5.8,0.1-11.7,0.2-17.6,0.2C600.3,399.1,597.4,399,594.5,398.9L594.5,398.9z M514.3,239.5h26.5V186h26.8v-53
	h-26.7c0,17.8,0,35.4,0,53.1h-26.5c0,1.4,0,2.4,0,3.4C514.4,206.2,514.4,222.9,514.3,239.5l-26.5,0.1V266h26.5V239.5L514.3,239.5z
	 M780.7,239.7c0,0.9,0.1,1.8,0.1,2.7c0,15.8,0,31.6,0,47.4v2.6h26.3v-53c-1,0-1.9,0-2.8,0c-6.1,0-12.2,0-18.2,0
	C784.3,239.5,782.4,239.7,780.7,239.7c0-0.5,0.1-1.1,0.1-1.7c0-16.8,0-33.6,0-50.4c0-0.5-0.1-0.9-0.1-1.4c-9.1,0-18.1,0-27,0
	c0.1-0.9,0.3-1.8,0.3-2.7c0-6.2,0-12.5,0-18.7v-5h-26.1v26.4h25.9c0.1,1,0.2,2,0.2,2.9c0,15.7,0,31.5,0,47.2v3.1c4.9,0,9.5,0,14.1,0
	C772.2,239.5,776.5,239.6,780.7,239.7L780.7,239.7z M106.2,398.9c-1,0.1-2,0.2-2.9,0.2c-24.5,0-49,0-73.4,0h-2.9v26.8h79.2
	C106.1,416.8,106.1,407.8,106.2,398.9c0.7,0.1,1.4,0.2,2.1,0.2c16.3,0,32.7,0,49,0c0.7,0,1.4-0.1,2.2-0.1v-26h-53.3L106.2,398.9
	L106.2,398.9z M1127.6,106.8c-0.6-0.1-1.1-0.3-1.7-0.3c-7.9,0-15.8,0-23.8,0c-0.4,0-0.8,0.1-1.1,0.2v319.2h26.3v-80h133.1v-26.4
	h-133v-53.5h106.2v-26.7h-106.2V186h106.2v-26.4h-106.2c-0.1-0.8-0.1-1.4-0.1-1.9c0-16.4,0-32.8,0-49.2
	C1127.3,107.9,1127.4,107.3,1127.6,106.8c0.8-0.2,1.7-0.3,2.6-0.3c7,0,14,0,21,0h2.9v-27h106.3V53.1H1154v-53h-26.8V53h-133V0h-26.9
	v53.2H861v26.4h106.5v26.9h26.9c0,1-0.1,2-0.1,3c0,15.7,0,31.3,0,47c0,1,0,1.9,0,3.2H887.9v26.4h106.2v53.4H888v26.8h106.1v53.3H861
	V346h133.3v79.9h26.4V106.6c-8.8,0-17.6,0-26.3,0V79.7h132.9c0,7.2,0,14.3,0,21.3C1127.3,103,1127.5,104.9,1127.6,106.8
	L1127.6,106.8z M212.7,346.2c0.1,0.9,0.2,1.8,0.2,2.7c0,7,0,14,0,21v2.7h26.7V346c-7.7,0-15.3,0-22.9,0
	C215.4,346,214,346.2,212.7,346.2c0.1-0.9,0.2-1.9,0.2-2.9c0-7,0-14,0-21v-2.9h186.4v-26.8H213.1v-26.5h106.1V132.7h-52.9V79.5
	h106.2V53.1H266.2V0.1h-26.4v53h-80.1V0h-26.5v53.2H26.9v26.4h106.2v53.3h-53v133.2h106.2v26.6H0v26.9h186.4c0,9,0,17.7,0,26.5
	h-26.4v26.5h26.4V346c5.9,0,11.8-0.1,17.7-0.1C206.9,346,209.8,346.1,212.7,346.2L212.7,346.2z M372.6,399.3h-79.3v26.5h79.3V399.3z
	 M292.9,373H240V399h52.9V373z M727.3,159.5V133h-26.4v26.5H727.3z M461.4,266.3v26.2h26v-26.2H461.4z"/>
<path d="M186.4,346.1v-26.5H0v-26.9h186.2v-26.6H80.1V132.9h53V79.7H26.9V53.2h106.3V0h26.5v53h80.1v-53h26.4v53.1h106.4v26.4H266.4
	v53.2h52.9v133.4H213.1v26.5h186.2v26.8H212.9v2.9c0,7,0,14,0,21c0,1-0.2,2-0.3,2.9l0,0c-2.9-0.1-5.8-0.2-8.7-0.3
	C198.1,346,192.2,346,186.4,346.1L186.4,346.1L186.4,346.1z M292.9,159.8H106.5v26.1H293L292.9,159.8L292.9,159.8z M292.9,239.3
	v-26.2H106.5v26.2H292.9z M159.9,132.6h79.8V79.7h-79.8V132.6z"/>
<path d="M994.3,106.6h26.3v319.3h-26.4V346H861v-26.4h133.1v-53.3H888v-26.8h106.1v-53.4H887.9v-26.4h106.4c0-1.2,0-2.2,0-3.2
	c0-15.7,0-31.3,0-47C994.3,108.5,994.3,107.5,994.3,106.6L994.3,106.6L994.3,106.6z"/>
<path d="M1127.5,106.7c-0.1,0.6-0.2,1.1-0.2,1.7c0,16.4,0,32.8,0,49.2c0,0.6,0.1,1.1,0.1,1.9h106.2V186h-106.2v53.4h106.2v26.7
	h-106.2v53.5h133v26.4h-133.1v80H1101V106.7c0.3-0.1,0.7-0.2,1.1-0.2c7.9,0,15.8,0,23.8,0C1126.4,106.5,1127,106.7,1127.5,106.7
	L1127.5,106.7L1127.5,106.7z"/>
<path d="M994.4,106.6h-26.9V79.7H861V53.2h106.3V0h26.9v53h133V0.1h26.8v53h106.4v26.4h-106.3v27h-2.9c-7,0-14,0-21,0
	c-0.9,0-1.8,0.1-2.7,0.2c0,0,0.1,0.1,0.1,0.1c-0.1-1.9-0.3-3.8-0.3-5.7c0-7.1,0-14.1,0-21.3H994.3
	C994.3,88.7,994.3,97.7,994.4,106.6L994.4,106.6L994.4,106.6z"/>
<path d="M620.7,398.9c0.1-1.1,0.2-2.3,0.2-3.5c0-130.6,0-261.3,0-391.9V0h26.3v399.2h-4.2c-6.6,0-13.2,0-19.7,0
	C622.4,399.1,621.5,399,620.7,398.9L620.7,398.9L620.7,398.9z"/>
<path d="M106.1,398.9v27.1H26.9v-26.8h2.9c24.5,0,49,0,73.4,0C104.2,399.1,105.2,399,106.1,398.9L106.1,398.9L106.1,398.9z"/>
<path d="M372.6,399.3v26.5h-79.3v-26.5H372.6z"/>
<path d="M753.6,186.3h27.1c0,0.4,0.1,0.9,0.1,1.4c0,16.8,0,33.6,0,50.4c0,0.6-0.1,1.1-0.2,1.7l0.1-0.1c-4.2-0.1-8.5-0.2-12.7-0.2
	c-4.6,0-9.1,0-14.1,0v-3.1c0-15.7,0-31.5,0-47.2C753.9,188.2,753.8,187.2,753.6,186.3L753.6,186.3L753.6,186.3z"/>
<path d="M540.9,186.1V133h26.7v53L540.9,186.1L540.9,186.1z"/>
<path d="M540.8,186v53.5h-26.5l0.1,0.1c0-16.7,0-33.4,0.1-50.2c0-1,0-2,0-3.4C523.3,186.1,532.1,186.1,540.8,186L540.8,186
	L540.8,186z"/>
<path d="M780.6,239.8c1.8-0.1,3.6-0.3,5.4-0.3c6.1,0,12.2,0,18.2,0c0.9,0,1.8,0,2.8,0v53h-26.3v-2.6c0-15.8,0-31.6,0-47.4
	C780.8,241.5,780.7,240.6,780.6,239.8L780.6,239.8L780.6,239.8z"/>
<path d="M106.2,398.9V373h53.3v26c-0.8,0-1.5,0.1-2.2,0.1c-16.3,0-32.7,0-49,0C107.6,399.2,106.9,399,106.2,398.9L106.2,398.9z"/>
<path d="M292.9,373V399H240V373H292.9z"/>
<path d="M212.6,346.3c1.4-0.1,2.8-0.3,4.2-0.3c7.6,0,15.1,0,22.9,0v26.6h-26.7v-2.7c0-7,0-14,0-21
	C212.9,348,212.8,347.1,212.6,346.3L212.6,346.3L212.6,346.3z"/>
<path d="M594.5,398.9c2.9,0.1,5.8,0.3,8.6,0.3c5.8,0,11.7-0.1,17.5-0.2c0,0-0.1-0.1-0.1-0.1c0.1,1.9,0.3,3.8,0.3,5.7
	c0,7.1,0,14.1,0,21.4h-26.5c-0.1-0.4-0.2-0.9-0.2-1.4c0-7.9,0-15.8,0-23.8C594.3,400.1,594.5,399.5,594.5,398.9L594.5,398.9
	L594.5,398.9z"/>
<path d="M727.3,159.5h-26.4V133h26.4V159.5z"/>
<path d="M514.3,239.6V266h-26.5v-26.3C496.6,239.6,505.5,239.6,514.3,239.6L514.3,239.6L514.3,239.6z"/>
<path d="M186.3,346v26.6h-26.4v-26.5C168.8,346.1,177.6,346.1,186.3,346L186.3,346L186.3,346z"/>
<path d="M753.7,186.2h-25.9v-26.4h26.1v5c0,6.2,0,12.5,0,18.7C753.9,184.5,753.7,185.4,753.7,186.2L753.7,186.2L753.7,186.2z"/>
<path d="M461.4,266.3h26v26.2h-26V266.3z"/>
<path d="M594.6,398.8c-1.6,0.1-3.1,0.3-4.7,0.3c-7.2,0-14.5,0-21.9,0v-26.1h26.3v3.9c0,6.5,0,13,0,19.5
	C594.3,397.3,594.4,398.1,594.6,398.8L594.6,398.8L594.6,398.8z"/>
<path class="st0" d="M159.9,132.6V79.7h79.8v52.9H159.9z"/>
</svg>
